<?xml version="1.0" standalone="no"?><!DOCTYPE svg PUBLIC "-//W3C//DTD SVG 1.1//EN" "http://www.w3.org/Graphics/SVG/1.1/DTD/svg11.dtd"><svg t="1550145479817" class="icon" style="" viewBox="0 0 1024 1024" version="1.1" xmlns="http://www.w3.org/2000/svg" p-id="2304" xmlns:xlink="http://www.w3.org/1999/xlink" width="32" height="32"><defs><style type="text/css"></style></defs><path d="M512 85.333333c-187.648 0-298.666667 132.352-298.666667 341.333334s102.314667 512 298.666667 512 298.666667-303.018667 298.666667-512-111.018667-341.333333-298.666667-341.333334z m29.866667 396.8C588.8 541.866667 738.133333 341.333333 640 213.333333c111.018667 21.333333 166.314667 349.866667 0 426.666667 0 0-115.2-80.981333-98.133333-157.866667zM384 213.333333c-98.133333 128 51.2 328.533333 98.133333 268.8C499.2 559.061333 384 640 384 640 217.685333 563.2 272.981333 234.666667 384 213.333333z m128 640c-98.133333 0-213.333333-213.333333-213.333333-213.333333s51.2 29.866667 213.333333 42.666667c166.314667-12.8 213.333333-42.666667 213.333333-42.666667s-123.648 213.333333-213.333333 213.333333z" fill="#2c2c2c" p-id="2305"></path></svg>